<svg id="Layer_1" data-name="Layer 1" xmlns="http://www.w3.org/2000/svg" xmlns:xlink="http://www.w3.org/1999/xlink" viewBox="0 0 1727.79 475"><defs><style>.cls-1{fill: #FFFFFF;}.cls-2{fill:url(#New_Gradient_Swatch_3);}.cls-3{fill:url(#New_Gradient_Swatch_3-2);}.cls-4{fill:url(#New_Gradient_Swatch_3-3);}.cls-5{fill:url(#New_Gradient_Swatch_3-4);}</style><linearGradient id="New_Gradient_Swatch_3" x1="-1.09" y1="290.24" x2="429.32" y2="-134.87" gradientTransform="translate(-40.11 171.89) rotate(-10)" gradientUnits="userSpaceOnUse"><stop offset="0" stop-color="#2f449c"/><stop offset="0.46" stop-color="#af3493"/><stop offset="1" stop-color="#fcb533"/></linearGradient><linearGradient id="New_Gradient_Swatch_3-2" x1="53.53" y1="345.54" x2="483.94" y2="-79.57" xlink:href="#New_Gradient_Swatch_3"/><linearGradient id="New_Gradient_Swatch_3-3" x1="128.31" y1="421.26" x2="558.72" y2="-3.85" xlink:href="#New_Gradient_Swatch_3"/><linearGradient id="New_Gradient_Swatch_3-4" x1="40.12" y1="331.97" x2="470.53" y2="-93.15" gradientTransform="translate(-27.61 184.39) rotate(-10)" xlink:href="#New_Gradient_Swatch_3"/></defs><path class="cls-1" d="M685.86,148.51a80.22,80.22,0,0,0-25.71-17.35A76.53,76.53,0,0,0,630,125H560.29V373.13h32.79V286.94H630a74.67,74.67,0,0,0,30.18-6.34,83.12,83.12,0,0,0,25.71-17.54,81.44,81.44,0,0,0,17.32-88.25A84.25,84.25,0,0,0,685.86,148.51Zm-23.11,91A43.37,43.37,0,0,1,630,253.73H593.08V159H630q19,0,32.78,13.81a47.33,47.33,0,0,1,0,66.79Z" transform="translate(-12.5 -12.5)"/><path class="cls-1" d="M878.86,215.67a78.63,78.63,0,0,0-60.73-28.36A94.14,94.14,0,0,0,731.5,317.72a89.67,89.67,0,0,0,20.3,30A92.35,92.35,0,0,0,818.13,375a70.3,70.3,0,0,0,33.16-8.21,93.8,93.8,0,0,0,27.57-22v28.35H912.4V191H878.86Zm-5,89.18a58.68,58.68,0,0,1-32.23,32.28,60.34,60.34,0,0,1-23.47,4.66,61.68,61.68,0,0,1-23.66-4.66,58.7,58.7,0,0,1-19.56-12.88,59.3,59.3,0,0,1-12.86-19.4,60.5,60.5,0,0,1-4.66-23.51,61.87,61.87,0,0,1,4.66-23.69,57.82,57.82,0,0,1,32.42-32.46,61.69,61.69,0,0,1,23.66-4.67,60.35,60.35,0,0,1,23.47,4.67,58.18,58.18,0,0,1,32.23,32.46,62.06,62.06,0,0,1,4.66,23.69A60.68,60.68,0,0,1,873.83,304.85Z" transform="translate(-12.5 -12.5)"/><path class="cls-1" d="M1016.72,185.07A66.23,66.23,0,0,0,988,191.42a70.32,70.32,0,0,0-28.13,26.12,69.48,69.48,0,0,0-10.25,36.94V373.13h32V254.48q0-14.55,10.44-25.75,9.68-10.44,24.59-10.45,7.06,0,16,4.11l30.92-18.29q-12.29-10.07-23.47-14.55A62.61,62.61,0,0,0,1016.72,185.07Z" transform="translate(-12.5 -12.5)"/><path class="cls-1" d="M1103.16,125.37a17.19,17.19,0,1,0,12.11,5A16.49,16.49,0,0,0,1103.16,125.37Z" transform="translate(-12.5 -12.5)"/><rect class="cls-1" x="1075.38" y="174.07" width="31.3" height="186.57"/><path class="cls-1" d="M1298.77,213.43a76.56,76.56,0,0,0-26.64-21.64,78.37,78.37,0,0,0-35.21-7.83,93.39,93.39,0,0,0-36.89,7.27,87.52,87.52,0,0,0-29.81,20.71,98.42,98.42,0,0,0-20.3,30.78,96.55,96.55,0,0,0,0,73.51,98.19,98.19,0,0,0,20.3,30.78A87.38,87.38,0,0,0,1200,367.72a93.4,93.4,0,0,0,36.89,7.28,73.66,73.66,0,0,0,33.72-8.21,88.91,88.91,0,0,0,28.13-22.39v28.73h32.79V125.37h-32.79Zm-18.63,109.7a58.38,58.38,0,0,1-19.56,13.44,59.74,59.74,0,0,1-23.66,4.85,59.41,59.41,0,0,1-42.85-18.29q-17.88-18.64-17.88-43.65a59.92,59.92,0,0,1,4.84-23.7,66,66,0,0,1,13-20,56.76,56.76,0,0,1,19.37-13.25,60.57,60.57,0,0,1,23.48-4.66,61.91,61.91,0,0,1,23.66,4.66,56.49,56.49,0,0,1,19.56,13.25,66.35,66.35,0,0,1,13,20,59.92,59.92,0,0,1,4.84,23.7Q1298,304.48,1280.14,323.13Z" transform="translate(-12.5 -12.5)"/><path class="cls-1" d="M1519.72,215.67A78.67,78.67,0,0,0,1459,187.31a94.16,94.16,0,0,0-86.63,130.41,89.7,89.7,0,0,0,20.31,30,92.17,92.17,0,0,0,30,20.15A93.13,93.13,0,0,0,1459,375a70.3,70.3,0,0,0,33.16-8.21,93.84,93.84,0,0,0,27.58-22v28.35h33.53V191h-33.53Zm-5,89.18a58.76,58.76,0,0,1-32.23,32.28,60.39,60.39,0,0,1-23.48,4.66,61.72,61.72,0,0,1-23.66-4.66,58.26,58.26,0,0,1-32.41-32.28,60.5,60.5,0,0,1-4.66-23.51,61.87,61.87,0,0,1,4.66-23.69,57.76,57.76,0,0,1,32.41-32.46,61.73,61.73,0,0,1,23.66-4.67,60.4,60.4,0,0,1,23.48,4.67,58.26,58.26,0,0,1,32.23,32.46,62,62,0,0,1,4.65,23.69A60.68,60.68,0,0,1,1514.69,304.85Z" transform="translate(-12.5 -12.5)"/><polygon class="cls-1" points="1727.79 174.07 1689.41 174.07 1651.03 237.87 1612.28 174.07 1574.28 174.07 1631.66 269.59 1576.89 360.63 1614.89 360.63 1651.03 301.31 1686.8 360.63 1725.55 360.63 1670.04 269.59 1727.79 174.07"/><polygon class="cls-2" points="292.3 227.84 292.3 227.84 131.15 115 140.91 170.35 236.95 237.6 169.7 333.63 179.46 388.98 292.3 227.84 292.3 227.84"/><polygon class="cls-3" points="268.79 192.8 301.34 215.6 360.08 131.71 350.32 76.36 268.79 192.8"/><polygon class="cls-4" points="304.97 236.22 282.17 268.78 398.65 350.33 388.89 294.99 304.97 236.22"/><path class="cls-5" d="M329.46,14,94.62,55.43A99.36,99.36,0,0,0,14,170.54l41.4,234.84A99.36,99.36,0,0,0,170.54,486l234.84-41.4A99.36,99.36,0,0,0,486,329.46L444.57,94.62A99.36,99.36,0,0,0,329.46,14ZM446.83,336.36a59.62,59.62,0,0,1-48.35,69.07L183.21,443.38,128,130.26l-39.14,6.91,54.62,309.76a59.63,59.63,0,0,1-48.91-48.45L53.17,163.64a59.62,59.62,0,0,1,48.35-69.07l234.84-41.4a59.62,59.62,0,0,1,69.07,48.35Z" transform="translate(-12.5 -12.5)"/></svg>