<svg id="Layer_1" data-name="Layer 1" xmlns="http://www.w3.org/2000/svg" viewBox="0 0 1960.14 500"><defs><style>.cls-1{fill:#6cb476;}.cls-2{fill:#363436;}</style></defs><path class="cls-1" d="M131.26,470.05A248.87,248.87,0,0,0,250,500c138.07,0,250-111.93,250-250A249.38,249.38,0,0,0,416.24,63.3L301.33,227.4,252.18,193,367,29A249,249,0,0,0,250,0C111.93,0,0,111.93,0,250A249.36,249.36,0,0,0,82.28,435.39L207.52,256.54,133,204.38l-14.72-83.47,0-.06L287.89,239.67l3.14,2.21h0M380.08,378,270.87,301.5l34.42-49.15,60.12,42.09,14.71,83.47Z"/><path class="cls-2" d="M550.41,348.93V169h77.75q24.11,0,41.57,7.84t26.94,22.49q9.5,14.64,9.49,34.69,0,20.31-9.49,34.82t-26.94,22.49q-17.46,8-41.57,8H573.25l19-18.76v68.36Zm41.82-63.74-19-19.79h52.6q19,0,28.74-8.22t9.75-23.13q0-14.9-9.75-23T625.85,203h-52.6l19-19.79Z"/><path class="cls-2" d="M737.47,348.93,817.27,169h41.05l80.57,179.9H895.27L829.33,190.11H846l-66,158.82Zm40.28-38.55,10.52-31.61h92.89l10.78,31.61Z"/><path class="cls-2" d="M992,348.93V169h77.75q24.1,0,41.57,7.84t26.94,22.49q9.48,14.64,9.49,34.69,0,20.31-9.49,34.82T1111.33,291q-17.46,7.59-41.57,7.59h-54.91l19-18v68.36Zm41.82-63.74-19-19.79h52.6q19,0,28.74-8.22t9.75-23.13q0-14.9-9.75-23T1067.45,203h-52.6l19-19.79Zm72.62,63.74-45.16-65.28h44.65l45.16,65.28Z"/><path class="cls-2" d="M1215,348.93V169h41.82v179.9Z"/><path class="cls-2" d="M1333.53,348.93V169h81.6q29.25,0,51.57,11.18a84.94,84.94,0,0,1,34.9,31.35q12.57,20.19,12.57,47.42t-12.57,47.41a84.89,84.89,0,0,1-34.9,31.36q-22.32,11.17-51.57,11.18ZM1375.36,315h37.72q18,0,31.17-6.81a49.09,49.09,0,0,0,20.53-19.53q7.32-12.72,7.31-29.68,0-17.22-7.31-29.81a49.41,49.41,0,0,0-20.53-19.4Q1431,203,1413.08,203h-37.72Z"/><path class="cls-2" d="M1553.69,348.93l79.8-179.9h41.06l80.57,179.9H1711.5l-66-158.82h16.68l-66,158.82ZM1594,310.38l10.52-31.61h92.88l10.78,31.61Z"/><path class="cls-2" d="M1778.72,348.93l77-106.66V272.6L1782.06,169h47l51.06,72-20,.51L1910.87,169h44.91L1882.39,270.8V241l77.75,107.94h-48l-52.86-76.33h19l-52.09,76.33Z"/></svg>