<svg id="Layer_1" data-name="Layer 1" xmlns="http://www.w3.org/2000/svg" viewBox="0 0 1960.13 500"><defs><style>.cls-1{fill:#6cb476;}.cls-2{fill:#e6e6e7;}</style></defs><path class="cls-1" d="M131.26,470.05A248.87,248.87,0,0,0,250,500c138.07,0,250-111.93,250-250A249.38,249.38,0,0,0,416.24,63.3L301.33,227.4,252.18,193,367,29A249,249,0,0,0,250,0C111.93,0,0,111.93,0,250A249.36,249.36,0,0,0,82.28,435.39L207.52,256.54,133,204.38l-14.72-83.47,0-.06L287.89,239.67l3.14,2.21h0M380.08,378,270.87,301.5l34.42-49.15,60.12,42.09,14.71,83.47Z"/><path class="cls-2" d="M550.41,348.94V169.05h77.75q24.11,0,41.57,7.83t26.94,22.49q9.48,14.65,9.49,34.69,0,20.31-9.49,34.83t-26.94,22.48q-17.46,8-41.57,8H573.25l19-18.76v68.36Zm41.82-63.73-19-19.79h52.6q19,0,28.74-8.23t9.75-23.13q0-14.9-9.75-23T625.85,203h-52.6l19-19.79Z"/><path class="cls-2" d="M737.47,348.94l79.8-179.89h41.05l80.57,179.89H895.27L829.33,190.12H846l-66,158.82Zm40.28-38.55,10.52-31.61h92.89l10.78,31.61Z"/><path class="cls-2" d="M992,348.94V169.05h77.74q24.12,0,41.57,7.83t27,22.49q9.48,14.65,9.49,34.69,0,20.31-9.49,34.83t-27,22.1q-17.44,7.58-41.57,7.58h-54.91l19-18v68.36Zm41.82-63.73-19-19.79h52.61q19,0,28.73-8.23t9.75-23.13q0-14.9-9.75-23T1067.45,203h-52.61l19-19.79Zm72.62,63.73-45.16-65.28h44.64l45.17,65.28Z"/><path class="cls-2" d="M1215,348.94V169.05h41.83V348.94Z"/><path class="cls-2" d="M1333.53,348.94V169.05h81.59q29.27,0,51.58,11.18a85,85,0,0,1,34.9,31.35q12.57,20.17,12.57,47.41t-12.57,47.42a85,85,0,0,1-34.9,31.35q-22.32,11.17-51.58,11.18ZM1375.35,315h37.72q18,0,31.18-6.81a49.15,49.15,0,0,0,20.53-19.53q7.31-12.74,7.31-29.69,0-17.2-7.31-29.81a49.41,49.41,0,0,0-20.53-19.4Q1431,203,1413.07,203h-37.72Z"/><path class="cls-2" d="M1553.68,348.94l79.81-179.89h41l80.57,179.89h-43.62l-65.94-158.82h16.67l-65.94,158.82ZM1594,310.39l10.52-31.61h92.89l10.78,31.61Z"/><path class="cls-2" d="M1778.72,348.94l77-106.65v30.32l-73.65-103.56h47L1880.07,241l-20,.52,50.8-72.47h44.91l-73.39,101.76V241l77.75,107.94h-48l-52.86-76.33h19l-52.09,76.33Z"/></svg>