<svg id="Layer_1" data-name="Layer 1" xmlns="http://www.w3.org/2000/svg" viewBox="0 0 500 500"><defs><style>.cls-1{fill:#ce3b59;}</style></defs><path class="cls-1" d="M416.93,63.91,312.05,213.7l-49.14-34.44L349.32,55.84h0l18.48-26.39A248.92,248.92,0,0,0,250,0C111.93,0,0,111.93,0,250A249.36,249.36,0,0,0,83.07,436.09L208.24,257.33l-74.49-52.16L119,121.71l0-.06,172.67,121h0L150.68,444.16h0l-18.48,26.39A248.92,248.92,0,0,0,250,500c138.07,0,250-111.93,250-250A249.36,249.36,0,0,0,416.93,63.91Zm-36,314.44-94.59-66.29L320.72,263l45.53,31.88L381,378.29Z"/></svg>